<svg width="77" height="77" viewBox="0 0 77 77" fill="none" xmlns="http://www.w3.org/2000/svg">
<g clip-path="url(#clip0_54_780)">
<path d="M76.6275 38.6248C76.6275 48.6592 72.6413 58.2826 65.546 65.378C58.4506 72.4734 48.8271 76.4595 38.7927 76.4595C28.7584 76.4595 19.1349 72.4734 12.0395 65.378C4.94416 58.2826 0.958008 48.6592 0.958008 38.6248C0.958008 28.5904 4.94416 18.967 12.0395 11.8716C19.1349 4.77619 28.7584 0.790039 38.7927 0.790039C48.8271 0.790039 58.4506 4.77619 65.546 11.8716C72.6413 18.967 76.6275 28.5904 76.6275 38.6248ZM33.0702 24.8766C32.7167 24.6248 32.3006 24.4753 31.8677 24.4443C31.4347 24.4132 31.0016 24.502 30.6158 24.7008C30.2299 24.8996 29.9062 25.2007 29.6801 25.5712C29.4541 25.9418 29.3343 26.3674 29.3341 26.8014V50.4481C29.3343 50.8822 29.4541 51.3078 29.6801 51.6783C29.9062 52.0488 30.2299 52.35 30.6158 52.5488C31.0016 52.7476 31.4347 52.8363 31.8677 52.8053C32.3006 52.7743 32.7167 52.6247 33.0702 52.373L49.6229 40.5496C49.9295 40.3309 50.1793 40.0421 50.3517 39.7073C50.5241 39.3725 50.6141 39.0014 50.6141 38.6248C50.6141 38.2482 50.5241 37.8771 50.3517 37.5423C50.1793 37.2075 49.9295 36.9187 49.6229 36.6999L33.0702 24.8766Z" fill="#4450BC"/>
</g>
<defs>
<clipPath id="clip0_54_780">
<rect width="75.6695" height="75.6695" fill="white" transform="translate(0.958008 0.790039)"/>
</clipPath>
</defs>
</svg>
