<svg width="34" height="34" viewBox="0 0 34 34" fill="none" xmlns="http://www.w3.org/2000/svg">
<path d="M7.79169 21.25C9.03141 21.243 10.2238 20.7731 11.135 19.9325L20.0034 25.0042C19.8904 25.3956 19.8332 25.8009 19.8334 26.2083C19.8243 27.358 20.2116 28.4757 20.9301 29.3733C21.6486 30.2708 22.6545 30.8933 23.7783 31.136C24.9021 31.3788 26.0752 31.2268 27.1001 30.7058C28.125 30.1848 28.9391 29.3266 29.4053 28.2757C29.8715 27.2247 29.9613 26.0452 29.6596 24.9357C29.358 23.8263 28.6832 22.8547 27.749 22.1845C26.8148 21.5144 25.6782 21.1865 24.5306 21.2563C23.383 21.3261 22.2945 21.7891 21.4484 22.5675L12.58 17.4958C12.687 17.1467 12.7443 16.7843 12.75 16.4192L21.4625 11.4325C22.3041 12.193 23.3816 12.641 24.5143 12.7014C25.647 12.7618 26.766 12.4308 27.6837 11.7641C28.6013 11.0973 29.2618 10.1353 29.5544 9.03935C29.8469 7.94341 29.7537 6.78021 29.2904 5.74483C28.8271 4.70945 28.0219 3.86486 27.0098 3.35271C25.9976 2.84057 24.8402 2.69201 23.7316 2.93196C22.6229 3.17191 21.6305 3.78577 20.9208 4.67059C20.211 5.5554 19.8271 6.65737 19.8334 7.79166C19.8381 8.19868 19.8953 8.60339 20.0034 8.99583L11.9425 13.6C11.4755 12.8774 10.8284 12.2888 10.065 11.8921C9.30157 11.4953 8.44803 11.304 7.58829 11.337C6.72855 11.37 5.89219 11.6261 5.16141 12.0802C4.43063 12.5343 3.83059 13.1708 3.42027 13.927C3.00995 14.6832 2.80346 15.5332 2.82111 16.3934C2.83876 17.2536 3.07994 18.0944 3.52094 18.8331C3.96193 19.5719 4.58757 20.1832 5.33636 20.6069C6.08515 21.0307 6.93132 21.2523 7.79169 21.25ZM24.7917 24.0833C25.212 24.0833 25.6228 24.208 25.9723 24.4415C26.3217 24.675 26.5941 25.0068 26.7549 25.3951C26.9158 25.7834 26.9578 26.2107 26.8759 26.6229C26.7939 27.0351 26.5915 27.4137 26.2943 27.7109C25.9971 28.0081 25.6185 28.2105 25.2063 28.2925C24.794 28.3745 24.3668 28.3324 23.9785 28.1716C23.5902 28.0107 23.2583 27.7384 23.0248 27.3889C22.7913 27.0395 22.6667 26.6286 22.6667 26.2083C22.6667 25.6447 22.8906 25.1042 23.2891 24.7057C23.6876 24.3072 24.2281 24.0833 24.7917 24.0833ZM24.7917 5.66666C25.212 5.66666 25.6228 5.79129 25.9723 6.02479C26.3217 6.25828 26.5941 6.59016 26.7549 6.97846C26.9158 7.36675 26.9578 7.79402 26.8759 8.20623C26.7939 8.61844 26.5915 8.99708 26.2943 9.29426C25.9971 9.59145 25.6185 9.79384 25.2063 9.87583C24.794 9.95782 24.3668 9.91574 23.9785 9.7549C23.5902 9.59407 23.2583 9.3217 23.0248 8.97225C22.7913 8.62279 22.6667 8.21195 22.6667 7.79166C22.6667 7.22807 22.8906 6.68757 23.2891 6.28906C23.6876 5.89054 24.2281 5.66666 24.7917 5.66666ZM7.79169 14.1667C8.21197 14.1667 8.62282 14.2913 8.97228 14.5248C9.32173 14.7583 9.5941 15.0902 9.75493 15.4785C9.91577 15.8668 9.95785 16.294 9.87586 16.7062C9.79386 17.1184 9.59148 17.4971 9.29429 17.7943C8.9971 18.0914 8.61847 18.2938 8.20626 18.3758C7.79405 18.4578 7.36678 18.4157 6.97849 18.2549C6.59019 18.0941 6.25831 17.8217 6.02482 17.4722C5.79132 17.1228 5.66669 16.7119 5.66669 16.2917C5.66669 15.7281 5.89057 15.1876 6.28909 14.7891C6.6876 14.3905 7.2281 14.1667 7.79169 14.1667Z" fill="#D2D2D2"/>
</svg>
