<svg width="35" height="35" viewBox="0 0 35 35" fill="none" xmlns="http://www.w3.org/2000/svg">
<path d="M17.5001 2.91663C14.6158 2.91663 11.7962 3.77192 9.39802 5.37436C6.99981 6.9768 5.13062 9.2544 4.02684 11.9192C2.92307 14.5839 2.63427 17.5161 3.19697 20.345C3.75967 23.1739 5.1486 25.7724 7.18811 27.8119C9.22763 29.8515 11.8261 31.2404 14.655 31.8031C17.4839 32.3658 20.4161 32.077 23.0809 30.9732C25.7456 29.8694 28.0233 28.0002 29.6257 25.602C31.2281 23.2038 32.0834 20.3843 32.0834 17.5C32.0834 15.5849 31.7062 13.6885 30.9733 11.9192C30.2405 10.1498 29.1663 8.54217 27.8121 7.18799C26.4579 5.8338 24.8502 4.7596 23.0809 4.02672C21.3116 3.29384 19.4152 2.91663 17.5001 2.91663ZM17.5001 29.1666C15.1926 29.1666 12.937 28.4824 11.0184 27.2004C9.09986 25.9185 7.60452 24.0964 6.72149 21.9646C5.83847 19.8328 5.60743 17.487 6.05759 15.2239C6.50775 12.9608 7.6189 10.882 9.25051 9.25038C10.8821 7.61877 12.9609 6.50763 15.224 6.05747C17.4871 5.6073 19.8329 5.83834 21.9647 6.72137C24.0965 7.60439 25.9186 9.09973 27.2006 11.0183C28.4825 12.9369 29.1668 15.1925 29.1668 17.5C29.1668 20.5942 27.9376 23.5616 25.7497 25.7495C23.5617 27.9375 20.5943 29.1666 17.5001 29.1666Z" fill="#D2D2D2"/>
<path d="M21.8751 16.0416H18.9584V13.125C18.9584 12.7382 18.8048 12.3673 18.5313 12.0938C18.2578 11.8203 17.8869 11.6666 17.5001 11.6666C17.1133 11.6666 16.7424 11.8203 16.4689 12.0938C16.1954 12.3673 16.0417 12.7382 16.0417 13.125V16.0416H13.1251C12.7383 16.0416 12.3674 16.1953 12.0939 16.4688C11.8204 16.7423 11.6667 17.1132 11.6667 17.5C11.6667 17.8867 11.8204 18.2577 12.0939 18.5312C12.3674 18.8046 12.7383 18.9583 13.1251 18.9583H16.0417V21.875C16.0417 22.2617 16.1954 22.6327 16.4689 22.9062C16.7424 23.1796 17.1133 23.3333 17.5001 23.3333C17.8869 23.3333 18.2578 23.1796 18.5313 22.9062C18.8048 22.6327 18.9584 22.2617 18.9584 21.875V18.9583H21.8751C22.2619 18.9583 22.6328 18.8046 22.9063 18.5312C23.1798 18.2577 23.3334 17.8867 23.3334 17.5C23.3334 17.1132 23.1798 16.7423 22.9063 16.4688C22.6328 16.1953 22.2619 16.0416 21.8751 16.0416Z" fill="#D2D2D2"/>
</svg>
