<svg width="58" height="59" viewBox="0 0 58 59" fill="none" xmlns="http://www.w3.org/2000/svg">
<path d="M8.82233 7.92554C9.65414 7.92554 10.3292 8.60063 10.3292 9.43244V49.8173C10.3292 50.217 10.1705 50.6003 9.88787 50.8829C9.60527 51.1655 9.22198 51.3242 8.82233 51.3242C8.42267 51.3242 8.03939 51.1655 7.75679 50.8829C7.47419 50.6003 7.31543 50.217 7.31543 49.8173V9.43244C7.31543 8.60063 7.99052 7.92554 8.82233 7.92554ZM50.7141 11.8507C50.7141 8.69827 47.182 6.83575 44.5804 8.61992L18.657 26.3917C16.387 27.9468 16.387 31.2981 18.657 32.8533L44.5804 50.6274C47.182 52.4092 50.7141 50.5491 50.7141 47.3978V11.8495V11.8507Z" fill="#D2D2D2"/>
</svg>
