<svg width="59" height="59" viewBox="0 0 59 59" fill="none" xmlns="http://www.w3.org/2000/svg">
<path d="M49.7634 7.92554C48.9315 7.92554 48.2565 8.60063 48.2565 9.43244V49.8173C48.2565 50.217 48.4152 50.6003 48.6978 50.8829C48.9804 51.1655 49.3637 51.3242 49.7634 51.3242C50.163 51.3242 50.5463 51.1655 50.8289 50.8829C51.1115 50.6003 51.2703 50.217 51.2703 49.8173V9.43244C51.2703 8.60063 50.5952 7.92554 49.7634 7.92554ZM7.87158 11.8507C7.87158 8.69827 11.405 6.83575 14.0053 8.61992L39.9287 26.3929C42.1987 27.948 42.1987 31.2993 39.9287 32.8545L14.0053 50.6298C11.4038 52.4092 7.87158 50.5491 7.87158 47.3978V11.8495V11.8507Z" fill="#D2D2D2"/>
</svg>
