<svg width="41" height="41" viewBox="0 0 41 41" fill="none" xmlns="http://www.w3.org/2000/svg">
<path d="M22.2084 17.0833H5.12508C4.1855 17.0833 3.41675 17.8521 3.41675 18.7917C3.41675 19.7312 4.1855 20.5 5.12508 20.5H22.2084C23.148 20.5 23.9167 19.7312 23.9167 18.7917C23.9167 17.8521 23.148 17.0833 22.2084 17.0833ZM22.2084 10.25H5.12508C4.1855 10.25 3.41675 11.0187 3.41675 11.9583C3.41675 12.8979 4.1855 13.6667 5.12508 13.6667H22.2084C23.148 13.6667 23.9167 12.8979 23.9167 11.9583C23.9167 11.0187 23.148 10.25 22.2084 10.25ZM30.7501 23.9167V18.7917C30.7501 17.8521 29.9813 17.0833 29.0417 17.0833C28.1022 17.0833 27.3334 17.8521 27.3334 18.7917V23.9167H22.2084C21.2688 23.9167 20.5001 24.6854 20.5001 25.625C20.5001 26.5646 21.2688 27.3333 22.2084 27.3333H27.3334V32.4583C27.3334 33.3979 28.1022 34.1667 29.0417 34.1667C29.9813 34.1667 30.7501 33.3979 30.7501 32.4583V27.3333H35.8751C36.8147 27.3333 37.5834 26.5646 37.5834 25.625C37.5834 24.6854 36.8147 23.9167 35.8751 23.9167H30.7501ZM5.12508 27.3333H15.3751C16.3147 27.3333 17.0834 26.5646 17.0834 25.625C17.0834 24.6854 16.3147 23.9167 15.3751 23.9167H5.12508C4.1855 23.9167 3.41675 24.6854 3.41675 25.625C3.41675 26.5646 4.1855 27.3333 5.12508 27.3333Z" fill="#D2D2D2"/>
</svg>
