<svg width="26" height="26" viewBox="0 0 26 26" fill="none" xmlns="http://www.w3.org/2000/svg">
<path d="M9.75 7.58337H19.5V19.5C19.5 20.0747 19.2717 20.6258 18.8654 21.0321C18.4591 21.4384 17.908 21.6667 17.3333 21.6667H8.66667C8.09203 21.6667 7.54093 21.4384 7.1346 21.0321C6.72827 20.6258 6.5 20.0747 6.5 19.5V7.58337H9.75Z" fill="#D2D2D2"/>
<path d="M9.74992 7.04171C9.74992 6.32341 10.0353 5.63454 10.5432 5.12663C11.0511 4.61872 11.74 4.33337 12.4583 4.33337H13.5416C14.2599 4.33337 14.9488 4.61872 15.4567 5.12663C15.9646 5.63454 16.2499 6.32341 16.2499 7.04171M21.6666 7.58337H19.4999H21.6666ZM4.33325 7.58337H6.49992H4.33325ZM6.49992 7.58337H19.4999H6.49992ZM6.49992 7.58337V19.5C6.49992 20.0747 6.72819 20.6258 7.13452 21.0321C7.54085 21.4384 8.09195 21.6667 8.66658 21.6667H17.3332C17.9079 21.6667 18.459 21.4384 18.8653 21.0321C19.2716 20.6258 19.4999 20.0747 19.4999 19.5V7.58337H6.49992Z" stroke="#D2D2D2" stroke-width="2" stroke-linecap="round" stroke-linejoin="round"/>
</svg>
