<svg width="45" height="46" viewBox="0 0 45 46" fill="none" xmlns="http://www.w3.org/2000/svg">
<path d="M41.7182 31.7059C41.9794 31.9696 42.1259 32.3258 42.1259 32.697C42.1259 33.0682 41.9794 33.4244 41.7182 33.6881L37.5452 37.861C37.2793 38.1181 36.924 38.2618 36.5541 38.2618C36.1843 38.2618 35.8289 38.1181 35.5631 37.861C35.3019 37.5973 35.1553 37.2411 35.1553 36.87C35.1553 36.4988 35.3019 36.1426 35.5631 35.8789L37.3713 34.088H35.3196C33.3264 34.0845 31.3626 33.6064 29.5909 32.6933C27.8191 31.7802 26.2902 30.4583 25.1307 28.837L17.8802 18.7002C16.9805 17.4402 15.7937 16.4124 14.418 15.7019C13.0423 14.9913 11.5173 14.6185 9.96897 14.6142H5.95251C5.58359 14.6142 5.22979 14.4677 4.96893 14.2068C4.70807 13.946 4.56152 13.5921 4.56152 13.2232C4.56152 12.8543 4.70807 12.5005 4.96893 12.2397C5.22979 11.9788 5.58359 11.8323 5.95251 11.8323H9.96897C11.9622 11.8358 13.926 12.3138 15.6977 13.2269C17.4695 14.1401 18.9984 15.4619 20.1579 17.0832L27.4084 27.22C28.3081 28.4801 29.4949 29.5079 30.8706 30.2184C32.2463 30.9289 33.7713 31.3017 35.3196 31.306H37.3713L35.5631 29.5151C35.3412 29.2449 35.2279 28.9018 35.245 28.5526C35.2622 28.2033 35.4086 27.873 35.6558 27.6258C35.9031 27.3785 36.2334 27.2321 36.5826 27.215C36.9318 27.1978 37.2749 27.3112 37.5452 27.533L41.7182 31.7059ZM25.2524 19.3088C25.4017 19.4157 25.5707 19.492 25.7496 19.5333C25.9285 19.5745 26.1139 19.58 26.2949 19.5493C26.4759 19.5186 26.6491 19.4523 26.8044 19.3543C26.9597 19.2564 27.0941 19.1286 27.1998 18.9784L27.4084 18.7002C28.3081 17.4402 29.4949 16.4124 30.8706 15.7019C32.2463 14.9913 33.7713 14.6185 35.3196 14.6142H37.3713L35.5631 16.4051C35.3019 16.6688 35.1553 17.025 35.1553 17.3962C35.1553 17.7674 35.3019 18.1235 35.5631 18.3873C35.8289 18.6443 36.1843 18.7881 36.5541 18.7881C36.924 18.7881 37.2793 18.6443 37.5452 18.3873L41.7182 14.2143C41.9794 13.9506 42.1259 13.5944 42.1259 13.2232C42.1259 12.8521 41.9794 12.4959 41.7182 12.2322L37.5452 8.05921C37.2749 7.8374 36.9318 7.72405 36.5826 7.7412C36.2334 7.75835 35.9031 7.90478 35.6558 8.15201C35.4086 8.39923 35.2622 8.72958 35.245 9.07879C35.2279 9.428 35.3412 9.7711 35.5631 10.0414L37.3713 11.8323H35.3196C33.3264 11.8358 31.3626 12.3138 29.5909 13.2269C27.8191 14.1401 26.2902 15.4619 25.1307 17.0832L24.9394 17.3614C24.8316 17.5097 24.7542 17.6777 24.7116 17.856C24.669 18.0343 24.662 18.2192 24.6911 18.4002C24.7202 18.5811 24.7847 18.7546 24.8811 18.9105C24.9774 19.0664 25.1036 19.2018 25.2524 19.3088ZM20.0362 26.6115C19.8869 26.5045 19.7179 26.4282 19.539 26.387C19.3601 26.3457 19.1747 26.3403 18.9937 26.371C18.8127 26.4017 18.6395 26.4679 18.4842 26.5659C18.3289 26.6639 18.1945 26.7916 18.0888 26.9418L17.8802 27.22C16.9805 28.4801 15.7937 29.5079 14.418 30.2184C13.0423 30.9289 11.5173 31.3017 9.96897 31.306H5.95251C5.58359 31.306 5.22979 31.4526 4.96893 31.7134C4.70807 31.9743 4.56152 32.3281 4.56152 32.697C4.56152 33.0659 4.70807 33.4197 4.96893 33.6806C5.22979 33.9414 5.58359 34.088 5.95251 34.088H9.96897C11.9622 34.0845 13.926 33.6064 15.6977 32.6933C17.4695 31.7802 18.9984 30.4583 20.1579 28.837L20.3492 28.5588C20.457 28.4106 20.5344 28.2425 20.577 28.0642C20.6196 27.886 20.6266 27.701 20.5975 27.5201C20.5684 27.3391 20.5039 27.1657 20.4075 27.0097C20.3112 26.8538 20.185 26.7185 20.0362 26.6115Z" fill="#D2D2D2"/>
</svg>
