<svg width="45" height="46" viewBox="0 0 45 46" fill="none" xmlns="http://www.w3.org/2000/svg">
<path d="M22.5997 39.1882C19.0351 39.1833 15.6179 37.7651 13.0973 35.2445C10.5767 32.7239 9.15847 29.3067 9.15356 25.7421C9.15356 25.3732 9.30011 25.0194 9.56097 24.7585C9.82183 24.4976 10.1756 24.3511 10.5445 24.3511C10.9135 24.3511 11.2673 24.4976 11.5281 24.7585C11.789 25.0194 11.9355 25.3732 11.9355 25.7421C11.9355 27.8512 12.561 29.9131 13.7328 31.6668C14.9046 33.4205 16.5701 34.7874 18.5187 35.5945C20.4673 36.4017 22.6116 36.6128 24.6802 36.2014C26.7489 35.7899 28.649 34.7742 30.1405 33.2828C31.6319 31.7914 32.6475 29.8912 33.059 27.8225C33.4705 25.7539 33.2593 23.6097 32.4522 21.6611C31.645 19.7124 30.2782 18.0469 28.5244 16.8751C26.7707 15.7033 24.7089 15.0779 22.5997 15.0779H17.9631C17.5942 15.0779 17.2404 14.9313 16.9795 14.6705C16.7187 14.4096 16.5721 14.0558 16.5721 13.6869C16.5721 13.318 16.7187 12.9642 16.9795 12.7033C17.2404 12.4424 17.5942 12.2959 17.9631 12.2959H22.5997C26.1659 12.2959 29.586 13.7125 32.1076 16.2342C34.6293 18.7558 36.0459 22.1759 36.0459 25.7421C36.0459 29.3082 34.6293 32.7283 32.1076 35.2499C29.586 37.7716 26.1659 39.1882 22.5997 39.1882Z" fill="#D2D2D2"/>
<path d="M22.5997 20.6418C22.4169 20.6427 22.2358 20.607 22.067 20.5369C21.8983 20.4669 21.7451 20.3638 21.6167 20.2338L16.0528 14.6698C15.7923 14.409 15.646 14.0555 15.646 13.6869C15.646 13.3183 15.7923 12.9647 16.0528 12.7039L21.6167 7.13998C21.7441 7.00332 21.8976 6.89371 22.0683 6.81768C22.2389 6.74166 22.4231 6.70078 22.6098 6.69748C22.7966 6.69419 22.9821 6.72854 23.1553 6.7985C23.3285 6.86846 23.4859 6.97259 23.618 7.10468C23.75 7.23676 23.8542 7.3941 23.9241 7.5673C23.9941 7.7405 24.0284 7.92602 24.0252 8.11279C24.0219 8.29956 23.981 8.48375 23.905 8.65437C23.8289 8.825 23.7193 8.97856 23.5826 9.10591L19.0017 13.6869L23.5826 18.2678C23.8431 18.5287 23.9894 18.8822 23.9894 19.2508C23.9894 19.6194 23.8431 19.973 23.5826 20.2338C23.4542 20.3638 23.3011 20.4669 23.1323 20.5369C22.9635 20.607 22.7824 20.6427 22.5997 20.6418Z" fill="#D2D2D2"/>
</svg>
