<svg width="27" height="27" viewBox="0 0 27 27" fill="none" xmlns="http://www.w3.org/2000/svg">
<path d="M6.18755 16.875C7.17203 16.8694 8.11892 16.4963 8.84255 15.8287L15.885 19.8563C15.7953 20.1671 15.7499 20.489 15.75 20.8125C15.7428 21.7255 16.0504 22.6131 16.621 23.3258C17.1916 24.0386 17.9904 24.5329 18.8828 24.7257C19.7752 24.9184 20.7068 24.7978 21.5207 24.3841C22.3346 23.9703 22.9811 23.2888 23.3513 22.4542C23.7215 21.6196 23.7928 20.6829 23.5533 19.8019C23.3137 18.9209 22.7779 18.1493 22.036 17.6171C21.2942 17.0849 20.3916 16.8246 19.4802 16.88C18.5689 16.9354 17.7045 17.3031 17.0325 17.9213L9.99005 13.8938C10.075 13.6165 10.1205 13.3287 10.1251 13.0387L17.0438 9.07875C17.7121 9.68269 18.5678 10.0385 19.4673 10.0864C20.3668 10.1344 21.2554 9.87154 21.9841 9.34206C22.7129 8.81257 23.2374 8.04861 23.4697 7.17831C23.702 6.30801 23.628 5.38429 23.2601 4.56207C22.8921 3.73986 22.2527 3.06916 21.449 2.66246C20.6452 2.25575 19.7261 2.13778 18.8457 2.32833C17.9653 2.51887 17.1772 3.00635 16.6136 3.709C16.0499 4.41165 15.7451 5.28674 15.75 6.1875C15.7539 6.51072 15.7992 6.83211 15.885 7.14375L9.4838 10.8C9.1129 10.2262 8.59907 9.75879 7.99282 9.4437C7.38657 9.12862 6.70877 8.97671 6.02603 9.00291C5.3433 9.02911 4.67913 9.23251 4.0988 9.59312C3.51848 9.95373 3.04198 10.4591 2.71613 11.0597C2.39029 11.6602 2.22631 12.3352 2.24033 13.0183C2.25435 13.7014 2.44587 14.3691 2.79607 14.9557C3.14628 15.5424 3.64311 16.0278 4.23774 16.3643C4.83236 16.7008 5.50432 16.8768 6.18755 16.875ZM19.6875 19.125C20.0213 19.125 20.3476 19.224 20.6251 19.4094C20.9026 19.5948 21.1189 19.8584 21.2466 20.1667C21.3743 20.4751 21.4077 20.8144 21.3426 21.1417C21.2775 21.4691 21.1168 21.7697 20.8808 22.0057C20.6448 22.2417 20.3441 22.4025 20.0168 22.4676C19.6894 22.5327 19.3501 22.4993 19.0418 22.3715C18.7334 22.2438 18.4699 22.0275 18.2844 21.75C18.099 21.4725 18 21.1463 18 20.8125C18 20.3649 18.1778 19.9357 18.4943 19.6193C18.8108 19.3028 19.24 19.125 19.6875 19.125ZM19.6875 4.5C20.0213 4.5 20.3476 4.59897 20.6251 4.78439C20.9026 4.96982 21.1189 5.23337 21.2466 5.54172C21.3743 5.85007 21.4077 6.18937 21.3426 6.51671C21.2775 6.84406 21.1168 7.14474 20.8808 7.38074C20.6448 7.61674 20.3441 7.77746 20.0168 7.84258C19.6894 7.90769 19.3501 7.87427 19.0418 7.74655C18.7334 7.61882 18.4699 7.40253 18.2844 7.12502C18.099 6.84752 18 6.52126 18 6.1875C18 5.73995 18.1778 5.31072 18.4943 4.99426C18.8108 4.67779 19.24 4.5 19.6875 4.5ZM6.18755 11.25C6.52131 11.25 6.84757 11.349 7.12508 11.5344C7.40259 11.7198 7.61888 11.9834 7.7466 12.2917C7.87432 12.6001 7.90774 12.9394 7.84263 13.2667C7.77752 13.5941 7.6168 13.8947 7.3808 14.1307C7.14479 14.3667 6.84411 14.5275 6.51677 14.5926C6.18942 14.6577 5.85012 14.6243 5.54177 14.4965C5.23342 14.3688 4.96987 14.1525 4.78445 13.875C4.59902 13.5975 4.50005 13.2713 4.50005 12.9375C4.50005 12.4899 4.67784 12.0607 4.99431 11.7443C5.31078 11.4278 5.74 11.25 6.18755 11.25Z" fill="#D2D2D2"/>
</svg>
