<svg width="40" height="43" viewBox="0 0 40 43" fill="none" xmlns="http://www.w3.org/2000/svg">
<g clip-path="url(#clip0_54_811)" filter="url(#filter0_d_54_811)">
<path d="M17.0636 4.96763C19.1944 4.96568 21.2779 5.59576 23.0506 6.77816C24.8232 7.96055 26.2053 9.64213 27.0221 11.6102C27.8389 13.5782 28.0536 15.7443 27.6391 17.8344C27.2246 19.9245 26.1995 21.8447 24.6935 23.3521C23.1874 24.8595 21.2682 25.8863 19.1785 26.3027C17.0888 26.7192 14.9225 26.5064 12.9537 25.6915C10.9849 24.8765 9.30205 23.4959 8.11804 21.7243C6.93402 19.9528 6.30204 17.8698 6.30204 15.739C6.31496 12.888 7.4526 10.1572 9.46771 8.14024C11.4828 6.12329 14.2126 4.98315 17.0636 4.96763ZM17.0636 2.95107C14.5344 2.95107 12.062 3.70107 9.959 5.10623C7.85602 6.51139 6.21696 8.5086 5.24907 10.8453C4.28118 13.182 4.02793 15.7532 4.52136 18.2338C5.01478 20.7145 6.23272 22.9931 8.02115 24.7815C9.80958 26.5699 12.0882 27.7879 14.5688 28.2813C17.0494 28.7747 19.6207 28.5215 21.9574 27.5536C24.2941 26.5857 26.2913 24.9466 27.6964 22.8437C29.1016 20.7407 29.8516 18.2683 29.8516 15.739C29.8516 12.3475 28.5043 9.09479 26.1061 6.69658C23.7079 4.29837 20.4552 2.95107 17.0636 2.95107Z" fill="#3E3E3E"/>
<path d="M35.4291 32.747L28.1793 25.4481L26.7825 26.8351L34.0323 34.134C34.1233 34.2258 34.2316 34.2986 34.3508 34.3485C34.4701 34.3984 34.598 34.4243 34.7272 34.4248C34.8565 34.4252 34.9845 34.4002 35.1041 34.3512C35.2237 34.3021 35.3325 34.23 35.4242 34.139C35.5159 34.0479 35.5888 33.9396 35.6387 33.8204C35.6886 33.7012 35.7145 33.5733 35.7149 33.444C35.7154 33.3148 35.6904 33.1867 35.6413 33.0671C35.5923 32.9475 35.5202 32.8388 35.4291 32.747Z" fill="#3E3E3E"/>
</g>
<defs>
<filter id="filter0_d_54_811" x="-3" y="0" width="43.4128" height="43.4128" filterUnits="userSpaceOnUse" color-interpolation-filters="sRGB">
<feFlood flood-opacity="0" result="BackgroundImageFix"/>
<feColorMatrix in="SourceAlpha" type="matrix" values="0 0 0 0 0 0 0 0 0 0 0 0 0 0 0 0 0 0 127 0" result="hardAlpha"/>
<feOffset dy="4"/>
<feGaussianBlur stdDeviation="2"/>
<feComposite in2="hardAlpha" operator="out"/>
<feColorMatrix type="matrix" values="0 0 0 0 0 0 0 0 0 0 0 0 0 0 0 0 0 0 0.25 0"/>
<feBlend mode="normal" in2="BackgroundImageFix" result="effect1_dropShadow_54_811"/>
<feBlend mode="normal" in="SourceGraphic" in2="effect1_dropShadow_54_811" result="shape"/>
</filter>
<clipPath id="clip0_54_811">
<rect width="35.4128" height="35.4128" fill="white" transform="translate(1)"/>
</clipPath>
</defs>
</svg>
