<svg width="32" height="32" viewBox="0 0 32 32" fill="none" xmlns="http://www.w3.org/2000/svg">
<path d="M16.0001 2.66666C13.363 2.66666 10.7851 3.44864 8.59248 4.91373C6.39983 6.37881 4.69086 8.4612 3.68169 10.8975C2.67253 13.3339 2.40848 16.0148 2.92295 18.6012C3.43742 21.1876 4.7073 23.5634 6.572 25.4281C8.4367 27.2928 10.8125 28.5627 13.3989 29.0771C15.9853 29.5916 18.6662 29.3276 21.1025 28.3184C23.5389 27.3092 25.6213 25.6002 27.0863 23.4076C28.5514 21.2149 29.3334 18.6371 29.3334 16C29.3334 14.249 28.9885 12.5152 28.3185 10.8975C27.6484 9.27987 26.6663 7.81001 25.4282 6.5719C24.1901 5.33379 22.7202 4.35166 21.1025 3.6816C19.4849 3.01153 17.751 2.66666 16.0001 2.66666ZM16.0001 26.6667C13.8904 26.6667 11.8281 26.0411 10.074 24.869C8.31988 23.6969 6.95271 22.031 6.14537 20.0819C5.33804 18.1329 5.1268 15.9882 5.53838 13.919C5.94995 11.8499 6.96586 9.94928 8.45761 8.45752C9.94938 6.96576 11.85 5.94986 13.9191 5.53828C15.9883 5.1267 18.133 5.33794 20.082 6.14528C22.0311 6.95261 23.697 8.31978 24.8691 10.0739C26.0412 11.828 26.6668 13.8903 26.6668 16C26.6668 18.829 25.5429 21.5421 23.5426 23.5425C21.5422 25.5429 18.8291 26.6667 16.0001 26.6667Z" fill="#D2D2D2"/>
<path d="M20.0001 14.6667H17.3334V12C17.3334 11.6464 17.1929 11.3072 16.9429 11.0572C16.6928 10.8071 16.3537 10.6667 16.0001 10.6667C15.6465 10.6667 15.3073 10.8071 15.0573 11.0572C14.8072 11.3072 14.6667 11.6464 14.6667 12V14.6667H12.0001C11.6465 14.6667 11.3073 14.8071 11.0573 15.0572C10.8072 15.3072 10.6667 15.6464 10.6667 16C10.6667 16.3536 10.8072 16.6928 11.0573 16.9428C11.3073 17.1928 11.6465 17.3333 12.0001 17.3333H14.6667V20C14.6667 20.3536 14.8072 20.6927 15.0573 20.9428C15.3073 21.1928 15.6465 21.3333 16.0001 21.3333C16.3537 21.3333 16.6928 21.1928 16.9429 20.9428C17.1929 20.6927 17.3334 20.3536 17.3334 20V17.3333H20.0001C20.3537 17.3333 20.6928 17.1928 20.9429 16.9428C21.1929 16.6928 21.3334 16.3536 21.3334 16C21.3334 15.6464 21.1929 15.3072 20.9429 15.0572C20.6928 14.8071 20.3537 14.6667 20.0001 14.6667Z" fill="#D2D2D2"/>
</svg>
