<svg width="34" height="34" viewBox="0 0 34 34" fill="none" xmlns="http://www.w3.org/2000/svg">
<path d="M18.4166 14.1667H4.24992C3.47075 14.1667 2.83325 14.8042 2.83325 15.5833C2.83325 16.3625 3.47075 17 4.24992 17H18.4166C19.1958 17 19.8333 16.3625 19.8333 15.5833C19.8333 14.8042 19.1958 14.1667 18.4166 14.1667ZM18.4166 8.5H4.24992C3.47075 8.5 2.83325 9.1375 2.83325 9.91667C2.83325 10.6958 3.47075 11.3333 4.24992 11.3333H18.4166C19.1958 11.3333 19.8333 10.6958 19.8333 9.91667C19.8333 9.1375 19.1958 8.5 18.4166 8.5ZM25.4999 19.8333V15.5833C25.4999 14.8042 24.8624 14.1667 24.0833 14.1667C23.3041 14.1667 22.6666 14.8042 22.6666 15.5833V19.8333H18.4166C17.6374 19.8333 16.9999 20.4708 16.9999 21.25C16.9999 22.0292 17.6374 22.6667 18.4166 22.6667H22.6666V26.9167C22.6666 27.6958 23.3041 28.3333 24.0833 28.3333C24.8624 28.3333 25.4999 27.6958 25.4999 26.9167V22.6667H29.7499C30.5291 22.6667 31.1666 22.0292 31.1666 21.25C31.1666 20.4708 30.5291 19.8333 29.7499 19.8333H25.4999ZM4.24992 22.6667H12.7499C13.5291 22.6667 14.1666 22.0292 14.1666 21.25C14.1666 20.4708 13.5291 19.8333 12.7499 19.8333H4.24992C3.47075 19.8333 2.83325 20.4708 2.83325 21.25C2.83325 22.0292 3.47075 22.6667 4.24992 22.6667Z" fill="#D2D2D2"/>
</svg>
