<svg width="32" height="32" viewBox="0 0 32 32" fill="none" xmlns="http://www.w3.org/2000/svg">
<path d="M29.7125 22.2875C29.9003 22.4771 30.0056 22.7331 30.0056 23C30.0056 23.2668 29.9003 23.5229 29.7125 23.7125L26.7125 26.7125C26.5214 26.8973 26.2659 27.0006 26 27.0006C25.7341 27.0006 25.4786 26.8973 25.2875 26.7125C25.0997 26.5229 24.9944 26.2668 24.9944 26C24.9944 25.7331 25.0997 25.4771 25.2875 25.2875L26.5875 24H25.1125C23.6795 23.9975 22.2678 23.6538 20.994 22.9973C19.7202 22.3409 18.6211 21.3906 17.7875 20.225L12.575 12.9375C11.9282 12.0316 11.075 11.2927 10.086 10.7819C9.09699 10.2711 8.00061 10.0031 6.8875 9.99999H4C3.73478 9.99999 3.48043 9.89464 3.29289 9.7071C3.10536 9.51956 3 9.26521 3 8.99999C3 8.73478 3.10536 8.48042 3.29289 8.29289C3.48043 8.10535 3.73478 7.99999 4 7.99999H6.8875C8.32047 8.00251 9.73224 8.34621 11.006 9.00266C12.2798 9.65911 13.3789 10.6094 14.2125 11.775L19.425 19.0625C20.0718 19.9684 20.925 20.7073 21.914 21.2181C22.903 21.7289 23.9994 21.9969 25.1125 22H26.5875L25.2875 20.7125C25.128 20.5182 25.0465 20.2715 25.0589 20.0205C25.0712 19.7694 25.1765 19.5319 25.3542 19.3542C25.5319 19.1765 25.7694 19.0712 26.0205 19.0589C26.2715 19.0465 26.5182 19.128 26.7125 19.2875L29.7125 22.2875ZM17.875 13.375C17.9823 13.4519 18.1038 13.5067 18.2324 13.5364C18.3611 13.566 18.4943 13.57 18.6245 13.5479C18.7546 13.5258 18.8791 13.4782 18.9908 13.4077C19.1024 13.3373 19.199 13.2454 19.275 13.1375L19.425 12.9375C20.0718 12.0316 20.925 11.2927 21.914 10.7819C22.903 10.2711 23.9994 10.0031 25.1125 9.99999H26.5875L25.2875 11.2875C25.0997 11.4771 24.9944 11.7331 24.9944 12C24.9944 12.2668 25.0997 12.5229 25.2875 12.7125C25.4786 12.8973 25.7341 13.0006 26 13.0006C26.2659 13.0006 26.5214 12.8973 26.7125 12.7125L29.7125 9.71249C29.9003 9.5229 30.0056 9.26684 30.0056 8.99999C30.0056 8.73314 29.9003 8.47709 29.7125 8.28749L26.7125 5.28749C26.5182 5.12803 26.2715 5.04654 26.0205 5.05887C25.7694 5.0712 25.5319 5.17647 25.3542 5.3542C25.1765 5.53194 25.0712 5.76943 25.0589 6.02048C25.0465 6.27153 25.128 6.5182 25.2875 6.71249L26.5875 7.99999H25.1125C23.6795 8.00251 22.2678 8.34621 20.994 9.00266C19.7202 9.65911 18.6211 10.6094 17.7875 11.775L17.65 11.975C17.5725 12.0816 17.5168 12.2024 17.4862 12.3306C17.4556 12.4587 17.4506 12.5917 17.4715 12.7218C17.4924 12.8519 17.5388 12.9766 17.608 13.0887C17.6773 13.2008 17.768 13.2981 17.875 13.375ZM14.125 18.625C14.0177 18.5481 13.8962 18.4933 13.7675 18.4636C13.6389 18.4339 13.5057 18.43 13.3755 18.4521C13.2454 18.4742 13.1209 18.5218 13.0092 18.5923C12.8976 18.6627 12.801 18.7545 12.725 18.8625L12.575 19.0625C11.9282 19.9684 11.075 20.7073 10.086 21.2181C9.09699 21.7289 8.00061 21.9969 6.8875 22H4C3.73478 22 3.48043 22.1053 3.29289 22.2929C3.10536 22.4804 3 22.7348 3 23C3 23.2652 3.10536 23.5196 3.29289 23.7071C3.48043 23.8946 3.73478 24 4 24H6.8875C8.32047 23.9975 9.73224 23.6538 11.006 22.9973C12.2798 22.3409 13.3789 21.3906 14.2125 20.225L14.35 20.025C14.4275 19.9184 14.4832 19.7976 14.5138 19.6694C14.5444 19.5413 14.5494 19.4083 14.5285 19.2782C14.5076 19.1481 14.4612 19.0234 14.392 18.9113C14.3227 18.7992 14.232 18.7019 14.125 18.625Z" fill="#D2D2D2"/>
</svg>
